<svg width="353" height="370" viewBox="0 0 353 370" fill="none" xmlns="http://www.w3.org/2000/svg">
<g clip-path="url(#clip0_3_650)">
<path d="M179.021 201.668C178.086 201.679 177.183 201.329 176.501 200.688C175.819 200.048 175.41 199.169 175.361 198.234L173.396 164.708C173.374 164.207 173.457 163.707 173.639 163.24C173.821 162.772 174.098 162.348 174.453 161.994L196.548 139.802C197.012 139.338 197.381 138.787 197.632 138.18C197.883 137.573 198.013 136.923 198.013 136.266C198.013 135.609 197.883 134.959 197.632 134.352C197.381 133.745 197.012 133.194 196.548 132.73L177.896 114.149C177.557 113.812 177.288 113.411 177.105 112.97C176.921 112.529 176.827 112.055 176.827 111.577C176.827 111.099 176.921 110.625 177.105 110.184C177.288 109.742 177.557 109.342 177.896 109.005L242.472 44.3295C242.804 43.9898 243.201 43.7201 243.639 43.5359C244.076 43.3518 244.546 43.257 245.021 43.2572C245.502 43.2518 245.979 43.3424 246.425 43.5238C246.87 43.7052 247.275 43.9737 247.616 44.3137C247.957 44.6536 248.226 45.0581 248.409 45.5037C248.592 45.9492 248.684 46.4267 248.681 46.9083V176.245C248.684 176.726 248.592 177.203 248.409 177.648C248.226 178.093 247.956 178.497 247.615 178.835C247.274 179.174 246.869 179.442 246.424 179.621C245.978 179.801 245.501 179.89 245.021 179.883C244.546 179.886 244.075 179.793 243.637 179.609C243.199 179.424 242.803 179.153 242.472 178.811L226.369 162.74C225.906 162.275 225.355 161.906 224.749 161.655C224.143 161.403 223.494 161.273 222.838 161.273C222.182 161.273 221.532 161.403 220.927 161.655C220.321 161.906 219.77 162.275 219.307 162.74L181.637 200.595C181.297 200.943 180.889 201.217 180.44 201.401C179.99 201.586 179.507 201.676 179.021 201.668Z" fill="url(#paint0_linear_3_650)"/>
<path d="M245.021 43.9358C245.412 43.9322 245.801 44.0066 246.163 44.1545C246.526 44.3024 246.855 44.521 247.133 44.7976C247.41 45.0742 247.63 45.4032 247.779 45.7655C247.929 46.1279 248.005 46.5163 248.003 46.9083V176.245C248.005 176.637 247.929 177.026 247.779 177.388C247.63 177.751 247.41 178.08 247.133 178.356C246.855 178.633 246.526 178.851 246.163 178.999C245.801 179.147 245.412 179.222 245.021 179.218C244.636 179.216 244.255 179.137 243.902 178.985C243.548 178.834 243.228 178.613 242.96 178.336L226.898 162.265C226.373 161.735 225.75 161.315 225.062 161.028C224.374 160.741 223.637 160.593 222.892 160.593C222.147 160.593 221.41 160.741 220.722 161.028C220.035 161.315 219.411 161.735 218.887 162.265L181.082 200.107C180.816 200.386 180.497 200.609 180.142 200.761C179.788 200.912 179.407 200.99 179.021 200.989C178.259 201.001 177.523 200.716 176.966 200.194C176.41 199.672 176.078 198.955 176.039 198.193L174.074 164.668C174.047 164.251 174.11 163.833 174.257 163.442C174.404 163.052 174.633 162.697 174.928 162.401L196.982 140.331C198.041 139.263 198.636 137.819 198.636 136.314C198.636 134.808 198.041 133.364 196.982 132.296L178.371 113.674C177.84 113.104 177.553 112.349 177.571 111.57C177.571 111.182 177.647 110.797 177.796 110.438C177.945 110.079 178.163 109.754 178.438 109.48L242.96 44.7909C243.226 44.5113 243.545 44.2889 243.9 44.1372C244.254 43.9855 244.635 43.9077 245.021 43.9087M245.021 42.5514C244.457 42.551 243.9 42.6637 243.38 42.8828C242.861 43.102 242.391 43.4231 241.998 43.8273L177.422 108.584C177.019 108.984 176.7 109.46 176.482 109.984C176.264 110.508 176.152 111.07 176.152 111.638C176.152 112.206 176.264 112.768 176.482 113.292C176.7 113.816 177.019 114.292 177.422 114.692L196.019 133.328C196.826 134.139 197.278 135.237 197.278 136.382C197.278 137.526 196.826 138.624 196.019 139.435L173.965 161.519C173.535 161.948 173.201 162.464 172.986 163.033C172.771 163.602 172.68 164.21 172.718 164.817L174.684 198.342C174.746 199.449 175.232 200.489 176.039 201.247C176.847 202.005 177.914 202.423 179.021 202.414C179.585 202.414 180.142 202.301 180.661 202.082C181.18 201.863 181.651 201.542 182.044 201.138L219.836 163.283C220.648 162.475 221.747 162.022 222.892 162.022C224.037 162.022 225.136 162.475 225.949 163.283L241.998 179.367C242.393 179.769 242.863 180.088 243.382 180.307C243.901 180.526 244.458 180.64 245.021 180.643C245.59 180.645 246.153 180.534 246.68 180.317C247.206 180.101 247.684 179.782 248.087 179.38C248.49 178.978 248.81 178.5 249.028 177.973C249.246 177.447 249.358 176.883 249.358 176.313V46.9083C249.36 46.3381 249.249 45.7731 249.032 45.2461C248.814 44.7191 248.494 44.2405 248.091 43.8379C247.688 43.4353 247.209 43.1167 246.682 42.9005C246.155 42.6844 245.59 42.5749 245.021 42.5785V42.5514Z" fill="url(#paint1_linear_3_650)"/>
<path d="M105.173 330.991C104.692 330.997 104.214 330.906 103.768 330.725C103.321 330.544 102.915 330.275 102.574 329.936C102.232 329.596 101.961 329.191 101.776 328.746C101.592 328.3 101.498 327.822 101.5 327.34V198.003C101.498 197.521 101.592 197.043 101.776 196.597C101.961 196.152 102.232 195.747 102.574 195.407C102.915 195.068 103.321 194.799 103.768 194.618C104.214 194.437 104.692 194.346 105.173 194.352C105.646 194.352 106.114 194.447 106.549 194.631C106.985 194.815 107.379 195.085 107.708 195.424L123.771 211.508C124.233 211.973 124.782 212.341 125.387 212.593C125.992 212.844 126.64 212.974 127.295 212.974C127.95 212.974 128.599 212.844 129.203 212.593C129.808 212.341 130.357 211.973 130.82 211.508L168.625 173.653C168.956 173.312 169.352 173.042 169.79 172.857C170.228 172.673 170.698 172.579 171.173 172.581C172.107 172.572 173.008 172.924 173.69 173.564C174.371 174.203 174.78 175.081 174.833 176.015L176.798 209.526C176.827 210.041 176.748 210.555 176.566 211.037C176.384 211.519 176.103 211.956 175.741 212.322L153.687 234.392C152.756 235.333 152.233 236.604 152.233 237.928C152.233 239.252 152.756 240.523 153.687 241.464L172.298 260.099C172.976 260.783 173.356 261.708 173.356 262.671C173.356 263.635 172.976 264.56 172.298 265.244L107.708 329.905C107.381 330.249 106.988 330.522 106.552 330.709C106.116 330.896 105.647 330.992 105.173 330.991Z" fill="url(#paint2_linear_3_650)"/>
<path d="M171.173 173.259C171.935 173.248 172.672 173.533 173.228 174.054C173.784 174.576 174.116 175.293 174.155 176.055L176.12 209.567C176.148 209.985 176.084 210.404 175.935 210.796C175.785 211.187 175.552 211.541 175.253 211.834L153.172 233.917C152.644 234.444 152.225 235.07 151.939 235.76C151.654 236.449 151.506 237.188 151.506 237.935C151.506 238.681 151.654 239.42 151.939 240.11C152.225 240.799 152.644 241.425 153.172 241.952L171.81 260.602C172.364 261.159 172.675 261.913 172.675 262.699C172.675 263.485 172.364 264.239 171.81 264.796L107.234 329.43C106.966 329.707 106.646 329.928 106.293 330.08C105.939 330.231 105.558 330.31 105.173 330.313C104.781 330.318 104.391 330.245 104.027 330.098C103.663 329.951 103.332 329.732 103.053 329.456C102.774 329.179 102.553 328.849 102.403 328.486C102.252 328.123 102.176 327.733 102.178 327.34V198.003C102.176 197.61 102.252 197.22 102.403 196.857C102.553 196.494 102.774 196.164 103.053 195.887C103.332 195.611 103.663 195.392 104.027 195.245C104.391 195.098 104.781 195.025 105.173 195.031C105.559 195.03 105.94 195.107 106.294 195.259C106.649 195.411 106.968 195.633 107.234 195.913L123.351 211.983C124.417 213.044 125.86 213.64 127.363 213.64C128.866 213.64 130.309 213.044 131.375 211.983L169.167 174.128C169.438 173.853 169.761 173.635 170.117 173.485C170.473 173.336 170.855 173.26 171.241 173.259M171.241 171.902C170.677 171.9 170.119 172.012 169.599 172.231C169.08 172.451 168.61 172.773 168.218 173.178L130.345 211.02C129.535 211.827 128.438 212.28 127.295 212.28C126.152 212.28 125.056 211.827 124.245 211.02L108.196 194.949C107.803 194.546 107.332 194.225 106.813 194.006C106.294 193.787 105.737 193.674 105.173 193.673C104.603 193.668 104.037 193.776 103.508 193.991C102.98 194.207 102.499 194.525 102.094 194.928C101.69 195.33 101.369 195.81 101.15 196.338C100.932 196.866 100.82 197.432 100.822 198.003V327.34C100.82 327.911 100.932 328.478 101.15 329.006C101.369 329.533 101.69 330.013 102.094 330.415C102.499 330.818 102.98 331.137 103.508 331.352C104.037 331.567 104.603 331.675 105.173 331.67C105.737 331.67 106.294 331.556 106.813 331.337C107.332 331.118 107.803 330.798 108.196 330.394L172.772 265.732C173.579 264.919 174.032 263.818 174.032 262.672C174.032 261.525 173.579 260.425 172.772 259.611L154.175 240.989C153.772 240.589 153.453 240.113 153.235 239.589C153.017 239.065 152.905 238.503 152.905 237.935C152.905 237.367 153.017 236.805 153.235 236.281C153.453 235.757 153.772 235.281 154.175 234.881L176.215 212.798C176.645 212.365 176.98 211.846 177.197 211.276C177.414 210.705 177.509 210.095 177.476 209.486L175.51 175.974C175.448 174.867 174.963 173.827 174.155 173.069C173.348 172.311 172.28 171.893 171.173 171.902H171.241Z" fill="url(#paint3_linear_3_650)"/>
<path d="M245.021 330.489C244.545 330.49 244.073 330.394 243.636 330.207C243.198 330.021 242.802 329.747 242.472 329.403L177.896 264.741C177.557 264.405 177.288 264.004 177.105 263.562C176.921 263.121 176.827 262.648 176.827 262.169C176.827 261.691 176.921 261.218 177.105 260.776C177.288 260.335 177.557 259.934 177.896 259.597L196.548 240.962C197.012 240.498 197.381 239.946 197.632 239.34C197.883 238.733 198.013 238.083 198.013 237.426C198.013 236.769 197.883 236.118 197.632 235.512C197.381 234.905 197.012 234.354 196.548 233.89L174.453 211.82C174.088 211.456 173.806 211.019 173.623 210.537C173.441 210.054 173.363 209.539 173.396 209.024L175.361 175.513C175.41 174.578 175.819 173.698 176.501 173.058C177.183 172.418 178.086 172.067 179.021 172.079C179.496 172.079 179.965 172.174 180.403 172.358C180.84 172.542 181.237 172.812 181.57 173.151L219.361 210.992C219.824 211.457 220.375 211.826 220.981 212.078C221.587 212.33 222.236 212.459 222.892 212.459C223.548 212.459 224.198 212.33 224.804 212.078C225.409 211.826 225.96 211.457 226.423 210.992L242.472 194.922C242.804 194.582 243.201 194.313 243.638 194.128C244.076 193.944 244.546 193.849 245.021 193.85C245.502 193.844 245.979 193.935 246.424 194.116C246.87 194.298 247.275 194.566 247.616 194.906C247.957 195.246 248.226 195.651 248.409 196.096C248.592 196.542 248.684 197.019 248.681 197.501V326.838C248.686 327.331 248.589 327.82 248.396 328.273C248.202 328.727 247.916 329.135 247.555 329.471C246.872 330.123 245.965 330.487 245.021 330.489Z" fill="url(#paint4_linear_3_650)"/>
<path d="M179.021 172.757C179.405 172.756 179.786 172.832 180.14 172.982C180.494 173.131 180.814 173.35 181.082 173.626L218.887 211.481C219.951 212.541 221.391 213.136 222.892 213.136C224.393 213.136 225.833 212.541 226.898 211.481L242.96 195.451C243.226 195.172 243.545 194.949 243.9 194.797C244.254 194.646 244.635 194.568 245.021 194.569C245.412 194.565 245.8 194.64 246.163 194.788C246.526 194.936 246.855 195.154 247.133 195.431C247.41 195.707 247.63 196.036 247.779 196.399C247.929 196.761 248.005 197.15 248.003 197.542V326.838C248.005 327.23 247.929 327.618 247.779 327.981C247.63 328.343 247.41 328.672 247.133 328.949C246.855 329.225 246.526 329.444 246.163 329.592C245.8 329.74 245.412 329.814 245.021 329.81C244.636 329.808 244.255 329.729 243.902 329.578C243.548 329.426 243.228 329.205 242.96 328.928L178.371 264.266C177.817 263.709 177.506 262.955 177.506 262.169C177.506 261.383 177.817 260.629 178.371 260.072L196.982 241.45C198.041 240.382 198.636 238.938 198.636 237.433C198.636 235.927 198.041 234.483 196.982 233.415L174.928 211.332C174.633 211.036 174.404 210.681 174.257 210.29C174.11 209.9 174.047 209.482 174.074 209.065L176.039 175.553C176.078 174.791 176.41 174.074 176.966 173.552C177.523 173.031 178.259 172.746 179.021 172.757ZM179.021 171.4C177.914 171.391 176.847 171.809 176.039 172.567C175.232 173.325 174.746 174.365 174.684 175.472L172.718 209.024C172.679 209.633 172.77 210.244 172.985 210.815C173.2 211.386 173.534 211.905 173.965 212.336L196.019 234.419C196.826 235.231 197.278 236.329 197.278 237.473C197.278 238.618 196.826 239.716 196.019 240.527L177.422 259.109C177.019 259.509 176.7 259.984 176.482 260.509C176.264 261.033 176.152 261.595 176.152 262.163C176.152 262.73 176.264 263.293 176.482 263.817C176.7 264.341 177.019 264.817 177.422 265.216L241.998 329.892C242.391 330.296 242.861 330.617 243.38 330.836C243.899 331.055 244.457 331.168 245.021 331.168C245.59 331.17 246.153 331.059 246.68 330.842C247.206 330.625 247.684 330.307 248.087 329.904C248.49 329.502 248.81 329.024 249.028 328.498C249.246 327.972 249.358 327.408 249.358 326.838V197.501C249.36 196.931 249.249 196.366 249.032 195.839C248.814 195.312 248.494 194.833 248.091 194.43C247.688 194.028 247.209 193.709 246.682 193.493C246.155 193.277 245.59 193.167 245.021 193.171C244.457 193.171 243.899 193.283 243.38 193.502C242.861 193.722 242.391 194.043 241.998 194.447L225.949 210.517C225.136 211.325 224.037 211.779 222.892 211.779C221.747 211.779 220.648 211.325 219.835 210.517L182.044 172.676C181.65 172.272 181.18 171.952 180.661 171.732C180.142 171.513 179.585 171.4 179.021 171.4Z" fill="url(#paint5_linear_3_650)"/>
<path d="M171.173 202.021C170.698 202.022 170.228 201.928 169.79 201.744C169.352 201.56 168.956 201.289 168.625 200.948L130.82 163.107C130.357 162.642 129.808 162.274 129.203 162.022C128.599 161.771 127.95 161.641 127.295 161.641C126.64 161.641 125.992 161.771 125.387 162.022C124.782 162.274 124.233 162.642 123.771 163.107L107.708 179.164C107.379 179.503 106.985 179.772 106.549 179.957C106.114 180.141 105.646 180.236 105.174 180.236C104.692 180.241 104.214 180.151 103.768 179.97C103.321 179.788 102.915 179.52 102.574 179.18C102.232 178.84 101.961 178.436 101.777 177.99C101.592 177.545 101.498 177.067 101.5 176.585V47.2748C101.496 46.7914 101.589 46.3121 101.773 45.8649C101.956 45.4178 102.227 45.0117 102.569 44.6705C102.911 44.3293 103.317 44.0598 103.765 43.8777C104.212 43.6956 104.691 43.6047 105.174 43.6101C105.647 43.6097 106.117 43.7057 106.552 43.8923C106.988 44.079 107.381 44.3524 107.708 44.6959L172.298 109.358C172.976 110.042 173.356 110.966 173.356 111.93C173.356 112.893 172.976 113.818 172.298 114.502L153.687 133.138C152.756 134.078 152.233 135.349 152.233 136.673C152.233 137.998 152.756 139.269 153.687 140.209L175.741 162.279C176.103 162.645 176.384 163.083 176.566 163.564C176.748 164.046 176.827 164.561 176.798 165.075L174.86 198.587C174.807 199.525 174.394 200.407 173.707 201.047C173.02 201.687 172.112 202.036 171.173 202.021Z" fill="url(#paint6_linear_3_650)"/>
<path d="M105.173 44.2888C105.558 44.2909 105.939 44.3701 106.293 44.5216C106.646 44.6731 106.966 44.8939 107.234 45.171L171.81 109.833C172.364 110.39 172.675 111.144 172.675 111.93C172.675 112.716 172.364 113.47 171.81 114.027L153.172 132.649C152.644 133.176 152.225 133.802 151.939 134.492C151.654 135.181 151.506 135.92 151.506 136.667C151.506 137.413 151.654 138.152 151.939 138.842C152.225 139.531 152.644 140.157 153.172 140.684L175.212 162.768C175.512 163.06 175.744 163.414 175.894 163.806C176.044 164.197 176.107 164.616 176.08 165.034L174.114 198.546C174.076 199.308 173.743 200.025 173.187 200.547C172.631 201.068 171.894 201.353 171.132 201.342C170.746 201.342 170.364 201.265 170.008 201.116C169.652 200.967 169.329 200.748 169.058 200.473L131.308 162.618C130.241 161.557 128.799 160.962 127.295 160.962C125.792 160.962 124.35 161.557 123.283 162.618L107.234 178.689C106.968 178.968 106.649 179.191 106.294 179.342C105.94 179.494 105.559 179.572 105.173 179.571C104.781 179.576 104.391 179.503 104.027 179.356C103.663 179.209 103.332 178.991 103.053 178.714C102.774 178.437 102.553 178.108 102.403 177.744C102.252 177.381 102.176 176.992 102.178 176.598V47.2613C102.176 46.8681 102.252 46.4785 102.403 46.1153C102.553 45.752 102.774 45.4224 103.053 45.1457C103.332 44.8689 103.663 44.6506 104.027 44.5035C104.391 44.3564 104.781 44.2834 105.173 44.2888ZM105.173 42.9315C104.603 42.9279 104.038 43.0373 103.51 43.2532C102.983 43.4692 102.503 43.7876 102.098 44.19C101.694 44.5924 101.373 45.0709 101.154 45.598C100.935 46.1251 100.822 46.6904 100.822 47.2613V176.598C100.82 177.17 100.932 177.736 101.15 178.264C101.369 178.792 101.69 179.271 102.094 179.674C102.499 180.076 102.98 180.395 103.508 180.61C104.037 180.825 104.603 180.934 105.173 180.928C105.737 180.928 106.294 180.815 106.813 180.596C107.332 180.377 107.803 180.056 108.196 179.652L124.245 163.582C125.056 162.775 126.152 162.321 127.295 162.321C128.438 162.321 129.535 162.775 130.345 163.582L168.15 201.423C168.542 201.829 169.012 202.151 169.532 202.37C170.051 202.589 170.609 202.701 171.173 202.699C172.28 202.708 173.348 202.29 174.155 201.532C174.963 200.774 175.448 199.734 175.51 198.627L177.476 165.116C177.509 164.506 177.414 163.896 177.197 163.326C176.98 162.755 176.645 162.237 176.215 161.804L154.175 139.721C153.772 139.321 153.453 138.845 153.235 138.321C153.017 137.797 152.905 137.234 152.905 136.667C152.905 136.099 153.017 135.537 153.235 135.013C153.453 134.488 153.772 134.013 154.175 133.613L172.772 114.991C173.579 114.179 174.031 113.081 174.031 111.937C174.031 110.792 173.579 109.694 172.772 108.883L108.196 44.2073C107.803 43.8038 107.332 43.4831 106.813 43.264C106.294 43.0449 105.737 42.9319 105.173 42.9315Z" fill="url(#paint7_linear_3_650)"/>
<path d="M124.272 68.4757L174.982 4.31616L225.61 65.6933L174.9 129.839L124.272 68.4757Z" fill="url(#paint8_linear_3_650)"/>
<path d="M175.036 8.63243L222.126 65.7205L174.86 125.523L127.756 68.4351L175.036 8.63243ZM174.941 0L120.721 68.5029L174.941 134.156L229.161 65.6526L174.941 0Z" fill="url(#paint9_linear_3_650)"/>
<path d="M4.31055 187.565L65.6064 136.87L129.667 187.66L68.3852 238.355L4.31055 187.565Z" fill="url(#paint10_linear_3_650)"/>
<path d="M65.6334 140.358L125.357 187.701L68.3444 234.813L8.621 187.525L65.6334 140.358ZM65.5657 133.382L0 187.606L68.4122 241.898L133.978 187.606L65.5657 133.382Z" fill="url(#paint11_linear_3_650)"/>
<path d="M223.333 187.945L284.615 137.25L348.689 188.027L287.394 238.736L223.333 187.945Z" fill="url(#paint12_linear_3_650)"/>
<path d="M284.655 140.738L344.379 188.081L287.367 235.234L227.643 187.891L284.655 140.738ZM284.655 133.748L219.09 188.04L287.502 242.332L353.068 188.04L284.655 133.748Z" fill="url(#paint13_linear_3_650)"/>
<path d="M123.812 304.32L174.534 240.161L225.162 301.538L174.44 365.697L123.812 304.32Z" fill="url(#paint14_linear_3_650)"/>
<path d="M174.575 244.49L221.679 301.579L174.399 361.368L127.295 304.28L174.575 244.49ZM174.48 235.844L120.328 304.361L174.548 370L228.768 301.497L174.548 235.844H174.48Z" fill="url(#paint15_linear_3_650)"/>
<path d="M175.05 205.373C171.341 205.369 167.741 204.116 164.829 201.817L164.029 201.179C160.852 198.391 158.867 194.486 158.486 190.273C158.104 186.06 159.356 181.861 161.982 178.546C164.607 175.232 168.405 173.056 172.589 172.468C176.773 171.881 181.022 172.927 184.457 175.39L185.27 176.028C187.95 178.152 189.904 181.059 190.859 184.345C191.814 187.632 191.724 191.134 190.6 194.367C189.476 197.599 187.375 200.401 184.588 202.383C181.802 204.365 178.468 205.429 175.05 205.427V205.373Z" fill="url(#paint16_linear_3_650)"/>
<path d="M174.25 169.065V174.495C177.344 174.501 180.347 175.548 182.776 177.467L183.576 178.105C185.186 179.378 186.491 180.995 187.395 182.839C188.3 184.682 188.78 186.705 188.803 188.759C188.825 190.813 188.387 192.845 187.523 194.708C186.658 196.571 185.388 198.216 183.806 199.523C181.377 201.527 178.336 202.637 175.189 202.67C172.042 202.702 168.979 201.653 166.51 199.7L165.71 199.062C163.472 197.287 161.841 194.859 161.044 192.114C160.247 189.369 160.323 186.444 161.262 183.745C162.201 181.045 163.956 178.705 166.283 177.05C168.611 175.395 171.395 174.506 174.25 174.508V169.079M174.25 169.079C169.796 169.078 165.481 170.633 162.05 173.477C159.845 175.299 158.074 177.592 156.868 180.188C155.662 182.785 155.052 185.618 155.082 188.481C155.112 191.345 155.781 194.165 157.041 196.735C158.301 199.306 160.119 201.562 162.362 203.337L163.162 203.962C166.602 206.692 170.873 208.157 175.262 208.113C179.651 208.068 183.892 206.517 187.276 203.717C189.48 201.894 191.248 199.6 192.453 197.004C193.657 194.408 194.266 191.575 194.236 188.712C194.206 185.85 193.538 183.031 192.28 180.46C191.022 177.89 189.206 175.634 186.964 173.857L186.165 173.219C182.769 170.558 178.575 169.123 174.263 169.147L174.25 169.079Z" fill="url(#paint17_linear_3_650)"/>
</g>
<defs>
<linearGradient id="paint0_linear_3_650" x1="211.037" y1="43.257" x2="211.037" y2="201.668" gradientUnits="userSpaceOnUse">
<stop stop-color="#1D1D1D"/>
<stop offset="1"/>
</linearGradient>
<linearGradient id="paint1_linear_3_650" x1="211.034" y1="42.5514" x2="211.034" y2="202.414" gradientUnits="userSpaceOnUse">
<stop stop-color="#1D1D1D"/>
<stop offset="1"/>
</linearGradient>
<linearGradient id="paint2_linear_3_650" x1="139.152" y1="172.581" x2="139.152" y2="330.991" gradientUnits="userSpaceOnUse">
<stop stop-color="#1D1D1D"/>
<stop offset="1"/>
</linearGradient>
<linearGradient id="paint3_linear_3_650" x1="139.152" y1="171.902" x2="139.152" y2="331.67" gradientUnits="userSpaceOnUse">
<stop stop-color="#1D1D1D"/>
<stop offset="1"/>
</linearGradient>
<linearGradient id="paint4_linear_3_650" x1="211.035" y1="172.078" x2="211.035" y2="330.489" gradientUnits="userSpaceOnUse">
<stop stop-color="#1D1D1D"/>
<stop offset="1"/>
</linearGradient>
<linearGradient id="paint5_linear_3_650" x1="211.034" y1="171.4" x2="211.034" y2="331.168" gradientUnits="userSpaceOnUse">
<stop stop-color="#1D1D1D"/>
<stop offset="1"/>
</linearGradient>
<linearGradient id="paint6_linear_3_650" x1="139.152" y1="43.6099" x2="139.152" y2="202.021" gradientUnits="userSpaceOnUse">
<stop stop-color="#1D1D1D"/>
<stop offset="1"/>
</linearGradient>
<linearGradient id="paint7_linear_3_650" x1="139.152" y1="42.9314" x2="139.152" y2="202.699" gradientUnits="userSpaceOnUse">
<stop stop-color="#1D1D1D"/>
<stop offset="1"/>
</linearGradient>
<linearGradient id="paint8_linear_3_650" x1="174.941" y1="4.31616" x2="174.941" y2="129.839" gradientUnits="userSpaceOnUse">
<stop stop-color="#FC955B"/>
<stop offset="1" stop-color="#FC5B5B"/>
</linearGradient>
<linearGradient id="paint9_linear_3_650" x1="174.941" y1="0" x2="174.941" y2="134.156" gradientUnits="userSpaceOnUse">
<stop stop-color="#343434"/>
<stop offset="1" stop-color="#0C0C0C"/>
</linearGradient>
<linearGradient id="paint10_linear_3_650" x1="66.989" y1="136.87" x2="66.989" y2="238.355" gradientUnits="userSpaceOnUse">
<stop stop-color="#FC955B"/>
<stop offset="1" stop-color="#FC5B5B"/>
</linearGradient>
<linearGradient id="paint11_linear_3_650" x1="66.9889" y1="133.382" x2="66.9889" y2="241.898" gradientUnits="userSpaceOnUse">
<stop stop-color="#343434"/>
<stop offset="1" stop-color="#0C0C0C"/>
</linearGradient>
<linearGradient id="paint12_linear_3_650" x1="286.011" y1="137.25" x2="286.011" y2="238.736" gradientUnits="userSpaceOnUse">
<stop stop-color="#FC955B"/>
<stop offset="1" stop-color="#FC5B5B"/>
</linearGradient>
<linearGradient id="paint13_linear_3_650" x1="286.079" y1="133.748" x2="286.079" y2="242.332" gradientUnits="userSpaceOnUse">
<stop stop-color="#343434"/>
<stop offset="1" stop-color="#0C0C0C"/>
</linearGradient>
<linearGradient id="paint14_linear_3_650" x1="174.487" y1="240.161" x2="174.487" y2="365.697" gradientUnits="userSpaceOnUse">
<stop stop-color="#FC955B"/>
<stop offset="1" stop-color="#FC5B5B"/>
</linearGradient>
<linearGradient id="paint15_linear_3_650" x1="174.548" y1="235.844" x2="174.548" y2="370" gradientUnits="userSpaceOnUse">
<stop stop-color="#343434"/>
<stop offset="1" stop-color="#0C0C0C"/>
</linearGradient>
<linearGradient id="paint16_linear_3_650" x1="174.966" y1="172.308" x2="174.966" y2="205.427" gradientUnits="userSpaceOnUse">
<stop stop-color="#FC955B"/>
<stop offset="1" stop-color="#FC5B5B"/>
</linearGradient>
<linearGradient id="paint17_linear_3_650" x1="174.659" y1="169.065" x2="174.659" y2="208.114" gradientUnits="userSpaceOnUse">
<stop stop-color="#343434"/>
<stop offset="1" stop-color="#0C0C0C"/>
</linearGradient>
<clipPath id="clip0_3_650">
<rect width="353" height="370" fill="white"/>
</clipPath>
</defs>
</svg>
